HIERARCHY
ROOT Hips
{
    OFFSET 0.000000 0.000000 0.000000
    CHANNELS 6 Xposition Yposition Zposition Zrotation Yrotation Xrotation
    JOINT Chest
    {
        OFFSET 0.000000 1.634758 -0.000000
        CHANNELS 3 Zrotation Yrotation Xrotation
        JOINT Chest2
        {
            OFFSET 0.000000 2.197341 0.000000
            CHANNELS 3 Zrotation Yrotation Xrotation
            JOINT Neck
            {
                OFFSET 0.000000 0.961544 0.000000
                CHANNELS 3 Zrotation Yrotation Xrotation
                JOINT Head
                {
                    OFFSET 0.000000 0.632542 -0.032565
                    CHANNELS 3 Zrotation Yrotation Xrotation
                    End Site
                    {
                        OFFSET -0.000001 0.439502 2.922845
                    }
                }
            }
            JOINT LeftCollar
            {
                OFFSET 0.167536 0.778237 -0.168280
                CHANNELS 3 Zrotation Yrotation Xrotation
                JOINT LeftShoulder
                {
                    OFFSET 0.831514 -0.002900 0.006458
                    CHANNELS 3 Zrotation Yrotation Xrotation
                    JOINT LeftElbow
                    {
                        OFFSET 2.272872 -0.026639 0.059314
                        CHANNELS 3 Zrotation Yrotation Xrotation
                        JOINT LeftWrist
                        {
                            OFFSET 2.081982 -0.024402 0.054333
                            CHANNELS 3 Zrotation Yrotation Xrotation
                            JOINT LeftHandThumb1
                            {
                                OFFSET 0.218903 -0.128645 0.283837
                                CHANNELS 3 Zrotation Yrotation Xrotation
                                JOINT LeftHandThumb2
                                {
                                    OFFSET 0.137157 -0.025101 0.077902
                                    CHANNELS 3 Zrotation Yrotation Xrotation
                                    JOINT LeftHandThumb3
                                    {
                                        OFFSET 0.166811 -0.075392 0.005417
                                        CHANNELS 3 Zrotation Yrotation Xrotation
                                        End Site
                                        {
                                            OFFSET 0.257669 -0.066032 -0.032901
                                        }
                                    }
                                }
                            }
                            JOINT LeftHandFore1
                            {
                                OFFSET 0.767340 -0.016076 0.196678
                                CHANNELS 3 Zrotation Yrotation Xrotation
                                JOINT LeftHandFore2
                                {
                                    OFFSET 0.195508 -0.091167 -0.021458
                                    CHANNELS 3 Zrotation Yrotation Xrotation
                                    JOINT LeftHandFore3
                                    {
                                        OFFSET 0.081481 -0.100220 -0.008931
                                        CHANNELS 3 Zrotation Yrotation Xrotation
                                        End Site
                                        {
                                            OFFSET 0.078004 -0.176453 -0.012105
                                        }
                                    }
                                }
                            }
                            JOINT LeftHandMiddle1
                            {
                                OFFSET 0.709887 -0.008320 0.018526
                                CHANNELS 3 Zrotation Yrotation Xrotation
                                JOINT LeftHandMiddle2
                                {
                                    OFFSET 0.176069 -0.170371 -0.006122
                                    CHANNELS 3 Zrotation Yrotation Xrotation
                                    JOINT LeftHandMiddle3
                                    {
                                        OFFSET 0.069464 -0.128663 -0.001966
                                        CHANNELS 3 Zrotation Yrotation Xrotation
                                        End Site
                                        {
                                            OFFSET 0.079720 -0.221975 -0.001360
                                        }
                                    }
                                }
                            }
                            JOINT LeftHandRing1
                            {
                                OFFSET 0.743817 -0.005823 -0.153668
                                CHANNELS 3 Zrotation Yrotation Xrotation
                                JOINT LeftHandRing2
                                {
                                    OFFSET 0.194288 -0.294886 -0.005313
                                    CHANNELS 3 Zrotation Yrotation Xrotation
                                    JOINT LeftHandRing3
                                    {
                                        OFFSET 0.023054 -0.134439 -0.000647
                                        CHANNELS 3 Zrotation Yrotation Xrotation
                                        End Site
                                        {
                                            OFFSET -0.003092 -0.120017 -0.002479
                                        }
                                    }
                                }
                            }
                            JOINT LeftHandLittle1
                            {
                                OFFSET 0.689408 -0.053302 -0.308304
                                CHANNELS 3 Zrotation Yrotation Xrotation
                                JOINT LeftHandLittle2
                                {
                                    OFFSET 0.084134 -0.175701 -0.010236
                                    CHANNELS 3 Zrotation Yrotation Xrotation
                                    JOINT LeftHandLittle3
                                    {
                                        OFFSET -0.005166 -0.118979 -0.017705
                                        CHANNELS 3 Zrotation Yrotation Xrotation
                                        End Site
                                        {
                                            OFFSET -0.007183 -0.189328 -0.019796
                                        }
                                    }
                                }
                            }
                        }
                    }
                }
            }
            JOINT RightCollar
            {
                OFFSET -0.167536 0.778237 -0.168280
                CHANNELS 3 Zrotation Yrotation Xrotation
                JOINT RightShoulder
                {
                    OFFSET -0.831514 -0.002900 0.006457
                    CHANNELS 3 Zrotation Yrotation Xrotation
                    JOINT RightElbow
                    {
                        OFFSET -2.272872 -0.026639 0.059313
                        CHANNELS 3 Zrotation Yrotation Xrotation
                        JOINT RightWrist
                        {
                            OFFSET -2.081982 -0.024402 0.054331
                            CHANNELS 3 Zrotation Yrotation Xrotation
                            JOINT RightHandThumb1
                            {
                                OFFSET -0.218911 -0.128571 0.283837
                                CHANNELS 3 Zrotation Yrotation Xrotation
                                JOINT RightHandThumb2
                                {
                                    OFFSET -0.137157 -0.025101 0.077902
                                    CHANNELS 3 Zrotation Yrotation Xrotation
                                    JOINT RightHandThumb3
                                    {
                                        OFFSET -0.159669 -0.071371 0.054327
                                        CHANNELS 3 Zrotation Yrotation Xrotation
                                        End Site
                                        {
                                            OFFSET -0.197434 -0.081270 0.162023
                                        }
                                    }
                                }
                            }
                            JOINT RightHandFore1
                            {
                                OFFSET -0.767344 -0.015991 0.196679
                                CHANNELS 3 Zrotation Yrotation Xrotation
                                JOINT RightHandFore2
                                {
                                    OFFSET -0.207834 -0.060673 -0.010992
                                    CHANNELS 3 Zrotation Yrotation Xrotation
                                    JOINT RightHandFore3
                                    {
                                        OFFSET -0.113767 -0.061484 -0.006232
                                        CHANNELS 3 Zrotation Yrotation Xrotation
                                        End Site
                                        {
                                            OFFSET -0.152585 -0.118580 -0.004838
                                        }
                                    }
                                }
                            }
                            JOINT RightHandMiddle1
                            {
                                OFFSET -0.709887 -0.008302 0.018525
                                CHANNELS 3 Zrotation Yrotation Xrotation
                                JOINT RightHandMiddle2
                                {
                                    OFFSET -0.223975 -0.099397 0.004170
                                    CHANNELS 3 Zrotation Yrotation Xrotation
                                    JOINT RightHandMiddle3
                                    {
                                        OFFSET -0.117753 -0.086690 0.001873
                                        CHANNELS 3 Zrotation Yrotation Xrotation
                                        End Site
                                        {
                                            OFFSET -0.160065 -0.173223 0.001746
                                        }
                                    }
                                }
                            }
                            JOINT RightHandRing1
                            {
                                OFFSET -0.743819 -0.005785 -0.153669
                                CHANNELS 3 Zrotation Yrotation Xrotation
                                JOINT RightHandRing2
                                {
                                    OFFSET -0.304912 -0.178067 0.007374
                                    CHANNELS 3 Zrotation Yrotation Xrotation
                                    JOINT RightHandRing3
                                    {
                                        OFFSET -0.089359 -0.102867 -0.006181
                                        CHANNELS 3 Zrotation Yrotation Xrotation
                                        End Site
                                        {
                                            OFFSET -0.056333 -0.105815 -0.007069
                                        }
                                    }
                                }
                            }
                            JOINT RightHandLittle1
                            {
                                OFFSET -0.689403 -0.053298 -0.308303
                                CHANNELS 3 Zrotation Yrotation Xrotation
                                JOINT RightHandLittle2
                                {
                                    OFFSET -0.159225 -0.112705 0.000423
                                    CHANNELS 3 Zrotation Yrotation Xrotation
                                    JOINT RightHandLittle3
                                    {
                                        OFFSET -0.073736 -0.094993 -0.005911
                                        CHANNELS 3 Zrotation Yrotation Xrotation
                                        End Site
                                        {
                                            OFFSET -0.127870 -0.140450 -0.014549
                                        }
                                    }
                                }
                            }
                        }
                    }
                }
            }
        }
    }
    JOINT LeftHip
    {
        OFFSET 0.685143 0.673822 -0.044491
        CHANNELS 3 Zrotation Yrotation Xrotation
        JOINT LeftKnee
        {
            OFFSET 0.085364 -3.750208 0.017676
            CHANNELS 3 Zrotation Yrotation Xrotation
            JOINT LeftAnkle
            {
                OFFSET 0.094583 -4.155206 0.019585
                CHANNELS 3 Zrotation Yrotation Xrotation
                JOINT LeftToe
                {
                    OFFSET -0.000000 -0.395925 0.621478
                    CHANNELS 3 Zrotation Yrotation Xrotation
                    End Site
                    {
                        OFFSET -0.000000 -0.077878 0.321152
                    }
                }
            }
        }
    }
    JOINT RightHip
    {
        OFFSET -0.685143 0.673822 -0.044492
        CHANNELS 3 Zrotation Yrotation Xrotation
        JOINT RightKnee
        {
            OFFSET -0.085364 -3.750208 0.017677
            CHANNELS 3 Zrotation Yrotation Xrotation
            JOINT RightAnkle
            {
                OFFSET -0.094583 -4.155206 0.019585
                CHANNELS 3 Zrotation Yrotation Xrotation
                JOINT RightToe
                {
                    OFFSET -0.000000 -0.395925 0.621478
                    CHANNELS 3 Zrotation Yrotation Xrotation
                    End Site
                    {
                        OFFSET -0.000000 -0.077878 0.321152
                    }
                }
            }
        }
    }
}
MOTION
Frames: 4
Frame Time: 0.033333
-5.260548 8.243610 -21.913385 179.963135 -0.039989 179.924744 -0.663557 5.634778 9.448828 0.194769 -0.871621 -5.992950 9.401186 -0.268822 4.156345 0.112040 -2.175122 9.806297 -7.067596 -6.878823 -0.137404 -44.140350 0.768391 1.286386 3.345653 -80.423210 -3.964323 7.319347 9.575737 5.392310 0.000005 0.000005 0.000002 -1.990230 -1.683298 0.806915 4.711649 -33.278492 -11.431640 38.943699 -14.632282 -5.660488 36.976677 -1.307292 3.911446 27.118092 -2.079368 3.654244 30.602684 -3.858539 -2.983578 30.912176 -0.123117 1.280619 21.749588 0.848657 0.584141 22.456530 3.242415 0.731968 26.303427 -0.109220 -1.702356 28.415442 2.652482 -1.898529 18.747198 8.478952 4.891290 30.231726 2.235900 -5.697917 17.529285 0.693546 -2.682680 2.724940 6.950095 0.021169 54.879303 13.588971 21.058615 -178.303177 49.301521 -179.228577 -19.090952 20.622253 -21.812021 -0.000015 -0.000003 0.000007 -11.079945 1.568349 -14.539670 -9.222276 2.802629 -8.335422 -17.604057 24.670561 -4.691224 -15.589865 0.255175 0.685269 -13.088924 -0.247199 -0.041362 -17.109407 -0.368503 0.521233 -17.617640 0.090341 -0.420681 -12.582131 0.360109 0.014447 -9.615560 -17.123947 5.589345 -22.577391 1.751523 -1.190092 -13.957597 1.987765 0.001774 -20.400167 -30.140678 15.184496 -12.193586 3.146791 -0.180009 -5.815934 1.631486 -0.234785 55.084759 24.524338 90.101173 -0.000002 -0.000001 0.000001 0.182329 2.087767 47.029442 -0.000005 -0.000012 -0.000003 -14.893089 7.070577 55.197575 -0.118404 -0.542992 24.604580 -6.155961 -0.242908 36.402241 -0.000002 0.000005 -0.000005
-5.317479 8.243626 -21.904976 179.805481 -0.023321 179.950409 -0.965191 6.246748 9.520185 -0.279966 -0.954747 -6.022241 9.498580 -0.805157 4.260736 0.167746 -3.254706 9.984771 -6.873403 -6.752723 -0.138048 -43.588043 1.482416 1.094187 4.250033 -82.192329 -4.879255 6.877583 9.736753 5.153161 0.000001 0.000005 -0.000007 -1.990228 -1.683300 0.806910 4.711649 -33.278484 -11.431645 38.943695 -14.632280 -5.660481 36.976681 -1.307299 3.911443 27.118097 -2.079351 3.654247 30.602680 -3.858541 -2.983571 30.912180 -0.123118 1.280617 21.749588 0.848654 0.584142 22.456526 3.242420 0.731970 26.303427 -0.109221 -1.702354 28.415442 2.652480 -1.898534 18.747200 8.478954 4.891295 30.231735 2.235900 -5.697913 17.529293 0.693552 -2.682680 2.960295 6.915013 0.026736 56.700081 12.269584 22.645679 -178.295181 49.683727 -179.218018 -21.669586 20.615002 -23.453821 -0.000004 -0.000003 0.000005 -11.495105 1.508317 -15.144020 -9.642766 2.894660 -8.757874 -18.528727 25.812098 -4.958868 -16.317217 0.273262 0.717823 -13.699725 -0.254098 -0.042995 -17.907681 -0.388870 0.546258 -18.439936 0.093562 -0.437864 -13.169394 0.376664 0.016086 -10.139068 -17.915749 5.879486 -23.632881 1.819520 -1.252765 -14.609560 2.078251 -0.003933 -21.724138 -31.465685 16.131359 -12.765097 3.285185 -0.197073 -6.088024 1.706184 -0.247547 54.806156 24.639120 90.182770 0.000000 -0.000000 0.000000 0.097635 2.156501 47.036224 0.000002 0.000002 0.000012 -15.135701 7.213236 54.664650 -0.126709 -0.560775 25.466898 -6.408200 -0.218700 36.117584 0.000002 0.000005 -0.000009
-5.379463 8.243648 -21.896460 179.677933 -0.011916 179.971329 -1.087705 6.877252 9.603014 -0.584153 -1.044971 -6.057323 9.573512 -1.303015 4.378546 0.222064 -4.305073 10.178111 -6.729804 -6.616061 -0.142191 -43.286694 2.087751 1.017598 5.496347 -83.772690 -6.134885 6.597959 9.731924 4.954938 0.000008 0.000005 0.000002 -1.990232 -1.683300 0.806911 4.711647 -33.278492 -11.431637 38.943691 -14.632287 -5.660475 36.976681 -1.307291 3.911439 27.118099 -2.079361 3.654247 30.602684 -3.858547 -2.983567 30.912180 -0.123117 1.280619 21.749588 0.848653 0.584141 22.456539 3.242414 0.731973 26.303431 -0.109226 -1.702349 28.415443 2.652494 -1.898528 18.747215 8.478954 4.891296 30.231726 2.235900 -5.697918 17.529299 0.693548 -2.682680 3.176349 6.926680 0.033601 58.240040 11.148061 24.013756 -178.283813 50.211403 -179.203140 -24.072803 20.496294 -25.010109 0.000003 0.000005 0.000000 -11.831451 1.455046 -15.638202 -9.986594 2.967437 -9.106124 -19.295141 26.746706 -5.184008 -16.913357 0.288493 0.744499 -14.200358 -0.259444 -0.044333 -18.561970 -0.405764 0.566821 -19.113926 0.096159 -0.451777 -13.650753 0.390215 0.017500 -10.573719 -18.563913 6.120425 -24.498117 1.874275 -1.304480 -15.143974 2.152228 -0.008983 -22.842701 -32.541912 16.934713 -13.233701 3.398011 -0.211594 -6.311096 1.767305 -0.258123 54.778477 24.673903 90.239624 0.000002 0.000000 0.000001 -0.057528 2.030723 47.150349 0.000000 -0.000007 -0.000012 -15.406559 7.338231 54.152142 -0.134736 -0.577323 26.275024 -6.671360 -0.117993 35.856842 -0.000002 -0.000002 -0.000010
-5.506639 8.243673 -21.887892 179.583237 -0.004818 179.986908 -0.143739 7.578413 9.701660 0.139352 -1.167711 -6.215590 9.622491 -1.723952 4.485560 0.282582 -5.472063 10.304107 -6.911658 -6.365658 -0.169173 -44.443451 2.438114 1.369583 5.783844 -84.050026 -6.424073 6.331363 9.702614 4.801899 0.000002 0.000007 -0.000006 -1.990232 -1.683301 0.806911 4.711647 -33.278488 -11.431643 38.943691 -14.632285 -5.660472 36.976685 -1.307290 3.911438 27.118101 -2.079364 3.654248 30.602690 -3.858544 -2.983580 30.912180 -0.123125 1.280622 21.749584 0.848661 0.584141 22.456532 3.242408 0.731967 26.303431 -0.109216 -1.702348 28.415443 2.652478 -1.898534 18.747206 8.478945 4.891290 30.231730 2.235893 -5.697920 17.529289 0.693547 -2.682680 3.335881 7.065956 0.048142 59.181084 9.547876 24.154118 -178.280594 50.358849 -179.198929 -26.121847 20.301964 -26.390865 -0.000003 0.000005 -0.000005 -12.081437 1.412464 -16.008108 -10.244168 3.020488 -9.368692 -19.875631 27.447598 -5.356589 -17.360815 0.300171 0.764517 -14.576137 -0.263265 -0.045344 -19.053087 -0.418575 0.582303 -19.619841 0.098070 -0.462124 -14.012064 0.400379 0.018589 -10.903372 -19.049953 6.303186 -25.147644 1.914795 -1.343493 -15.545149 2.207640 -0.012995 -23.702871 -33.343575 17.554800 -13.585546 3.482337 -0.222808 -6.478553 1.813122 -0.266129 54.409496 24.777042 90.269089 0.000000 -0.000003 0.000001 -0.145109 2.252498 47.125473 -0.000002 -0.000005 0.000002 -15.989632 7.467383 53.732185 -0.139661 -0.587196 26.759756 -6.876201 0.348983 35.745857 -0.000001 -0.000002 0.000012
